<svg width="18" height="19" viewBox="0 0 18 19" fill="none" xmlns="http://www.w3.org/2000/svg">
<g clip-path="url(#clip0_68_369)">
<path d="M2.04058 0H4.88096C4.91181 0.00170217 4.94179 0.0109002 4.96828 0.0267975C4.99478 0.0426948 5.017 0.0648118 5.03302 0.091233L8.81918 6.42584H12.6464V0.191589C12.6458 0.166775 12.6501 0.142088 12.6592 0.118967C12.6682 0.095847 12.6817 0.0747559 12.699 0.0569233C12.7163 0.0390908 12.7369 0.0248737 12.7597 0.0151007C12.7826 0.00532771 12.8071 0.000194402 12.8319 0L15.4594 0C15.509 0 15.5566 0.0197046 15.5917 0.0547791C15.6267 0.0898536 15.6465 0.137425 15.6465 0.187028V6.42128H17.3191C17.3687 6.42128 17.4162 6.44098 17.4513 6.47606C17.4864 6.51113 17.5061 6.5587 17.5061 6.60831V8.2946C17.5061 8.3442 17.4864 8.39177 17.4513 8.42685C17.4162 8.46192 17.3687 8.48162 17.3191 8.48162H15.6465V9.91246H17.3191C17.3684 9.91246 17.4157 9.93196 17.4508 9.9667C17.4858 10.0014 17.5057 10.0486 17.5061 10.098V11.7812C17.5057 11.8306 17.4858 11.8777 17.4508 11.9125C17.4157 11.9472 17.3684 11.9667 17.3191 11.9667H15.6465V18.5051C15.6465 18.5547 15.6267 18.6023 15.5917 18.6373C15.5566 18.6724 15.509 18.6921 15.4594 18.6921H12.8319C12.8011 18.6904 12.7711 18.6812 12.7446 18.6653C12.7181 18.6494 12.6959 18.6273 12.6799 18.6009L8.81918 11.9667H5.05735V18.5051C5.05537 18.5542 5.03416 18.6005 4.99831 18.6341C4.96247 18.6676 4.91485 18.6857 4.86576 18.6845H2.04058C1.99097 18.6845 1.9434 18.6648 1.90833 18.6297C1.87325 18.5947 1.85355 18.5471 1.85355 18.4975V11.9667H0.180945C0.132666 11.9652 0.0868666 11.945 0.0531378 11.9104C0.0194091 11.8758 0.000367217 11.8295 0 11.7812L0 10.098C0.000401142 10.0486 0.0202827 10.0014 0.0553138 9.9667C0.0903449 9.93196 0.137687 9.91246 0.187028 9.91246H1.85963V8.48162H0.187028C0.162467 8.48162 0.138146 8.47679 0.115455 8.46739C0.092764 8.45799 0.0721462 8.44421 0.0547791 8.42685C0.0197046 8.39177 0 8.3442 0 8.2946L0 6.61287C0 6.56327 0.0197046 6.5157 0.0547791 6.48062C0.0898536 6.44555 0.137425 6.42584 0.187028 6.42584H1.85963V0.191589C1.8584 0.142238 1.87673 0.0944028 1.91063 0.058513C1.94453 0.0226231 1.99124 0.00159009 2.04058 0ZM5.05735 8.48162V9.91246H7.64228L6.97324 8.48162H5.05735ZM10.6438 9.91246H12.6464V8.48162H9.98697L10.6438 9.91246ZM12.6464 11.9667H11.842L12.6464 13.6393V11.9667ZM5.05735 4.98132V6.42584H5.75224L5.05735 4.98132Z" fill="#1C2529"/>
</g>
<defs>
<clipPath id="clip0_68_369">
<rect width="17.5" height="18.6845" fill="white"/>
</clipPath>
</defs>
</svg>
